{"title":"The Voice - Australia S01 E14 - pKcMvA","uid":7346720,"size":799058654,"categoryP":"video","categoryS":"tv_shows","magnet":"?xt=urn:btih:d34b4816ab8c06933940083fe99b59f6a53ca3e4&amp;dn=The+Voice+-+Australia+S01+E14+-+pKcMvA&amp;tr=udp%3A%2F%2Ftracker.openbittorrent.com%3A80&amp;tr=udp%3A%2F%2Fopen.demonii.com%3A1337&amp;tr=udp%3A%2F%2Ftracker.coppersurfer.tk%3A6969&amp;tr=udp%3A%2F%2Fexodus.desync.com%3A6969","seeders":0,"leechers":1,"uploader":"PKCMVA","files":1,"time":1339446782,"description":"The Voice - Australia S01 E14 - pKcMvA\n\nLive Show Final, Part 5\n\nFormat                                   : AVI\nFormat/Info                              : Audio Video Interleave\nFile size                                : 763 MiB\nDuration                                 : 1h 31mn\nOverall bit rate                         : 1 170 Kbps\n\nFormat                                   : MPEG-4 Visual\nFormat profile                           : Advanced Simple@L5\nFormat settings, BVOP                    : 2\nFormat settings, QPel                    : No\nFormat settings, GMC                     : No warppoints\nFormat settings, Matrix                  : Default (H.263)\nMuxing mode                              : Packed bitstream\nCodec ID                                 : XVID\nCodec ID/Hint                            : XviD\nDuration                                 : 1h 31mn\nBit rate                                 : 969 Kbps\nWidth                                    : 624 pixels\nHeight                                   : 352 pixels\nDisplay aspect ratio                     : 16:9\nFrame rate                               : 25.000 fps\nColor space                              : YUV\nChroma subsampling                       : 4:2:0\nBit depth                                : 8 bits\nScan type                                : Progressive\nBits/(Pixel*Frame)                       : 0.176\nStream size                              : 632 MiB (83%)\nWriting library                          : XviD 64\n\nFormat                                   : MPEG Audio\nFormat version                           : Version 1\nFormat profile                           : Layer 3\nCodec ID                                 : 55\nCodec ID/Hint                            : MP3\nDuration                                 : 1h 31mn\nBit rate mode                            : Constant\nBit rate                                 : 192 Kbps\nChannel(s)                               : 2 channels\nSampling rate                            : 44.1 KHz\nCompression mode                         : Lossy\nStream size                              : 125 MiB (16%)\nAlignment                                : Split accross interleaves\nInterleave, duration                     : 40 ms (1.00 video frame)","torrent":{"xt":"urn:btih:d34b4816ab8c06933940083fe99b59f6a53ca3e4","amp;dn":"The+Voice+-+Australia+S01+E14+-+pKcMvA","amp;tr":["udp%3A%2F%2Ftracker.openbittorrent.com%3A80","udp%3A%2F%2Fopen.demonii.com%3A1337","udp%3A%2F%2Ftracker.coppersurfer.tk%3A6969","udp%3A%2F%2Fexodus.desync.com%3A6969"],"infoHash":"d34b4816ab8c06933940083fe99b59f6a53ca3e4","infoHashBuffer":{"type":"Buffer","data":[211,75,72,22,171,140,6,147,57,64,8,63,233,155,89,246,165,60,163,228]},"announce":[],"urlList":[]}}